 <svg  version="1.0" xmlns="http://www.w3.org/2000/svg"  width="300.000000pt" height="200.000000pt" viewBox="0 0 300.000000 200.000000"  preserveAspectRatio="xMidYMid meet">  <g transform="translate(0.000000,200.000000) scale(0.100000,-0.100000)" fill="#f20202" stroke="none"> <path d="M1606 1270 c-67 -20 -131 -82 -175 -167 -26 -52 -28 -82 -1 -33 54 101 144 169 238 177 55 5 60 4 80 -22 12 -15 27 -46 33 -69 14 -52 6 -170 -15 -221 -24 -58 -13 -53 28 11 45 74 64 150 48 203 -30 100 -131 152 -236 121z"/> <path d="M1263 1239 c-45 -13 -100 -71 -113 -119 -20 -74 21 -165 91 -200 54 -28 160 -50 234 -49 l60 2 -70 11 c-97 17 -206 54 -233 79 -41 38 -56 79 -53 145 1 12 7 22 16 22 8 0 12 6 9 13 -15 39 111 92 163 68 l28 -13 -40 -24 c-22 -13 -49 -24 -60 -25 -12 0 -15 -3 -7 -6 16 -6 119 32 151 56 l25 19 -54 16 c-59 18 -99 19 -147 5z"/> <path d="M1585 1035 c25 -75 44 -170 38 -198 -9 -49 -51 -116 -77 -123 -13 -3 -43 0 -67 6 -41 11 -58 19 -135 65 -20 12 -15 5 16 -24 25 -23 68 -53 97 -68 l51 -27 48 30 c69 42 94 83 94 155 0 60 -27 149 -56 185 -15 19 -16 19 -9 -1z"/> </g> </svg> 